<?xml version="1.0" encoding="UTF-8"?>
<!DOCTYPE svg PUBLIC "-//W3C//DTD SVG 1.1//EN" "http://www.w3.org/Graphics/SVG/1.1/DTD/svg11.dtd">
<!-- Creator: CorelDRAW 2018 (64-Bit) -->
<svg xmlns="http://www.w3.org/2000/svg" xml:space="preserve" width="629px" height="265px" version="1.1" style="shape-rendering:geometricPrecision; text-rendering:geometricPrecision; image-rendering:optimizeQuality; fill-rule:evenodd; clip-rule:evenodd"
viewBox="0 0 173.85 73.32"
 xmlns:xlink="http://www.w3.org/1999/xlink">
 <defs>
  <style type="text/css">
   <![CDATA[
    .fil96 {fill:blue}
    .fil95 {fill:#0100FE}
    .fil94 {fill:#0200FD}
    .fil93 {fill:#0400FB}
    .fil92 {fill:#0600F9}
    .fil91 {fill:#0800F7}
    .fil90 {fill:#0B00F4}
    .fil89 {fill:#0E00F1}
    .fil88 {fill:#1100ED}
    .fil87 {fill:#1500E9}
    .fil86 {fill:#1900E6}
    .fil85 {fill:#1D00E1}
    .fil84 {fill:#2100DD}
    .fil83 {fill:#2600D8}
    .fil82 {fill:#2B00D3}
    .fil81 {fill:#2F00CF}
    .fil80 {fill:#3400CA}
    .fil79 {fill:#3900C4}
    .fil78 {fill:#3F00BF}
    .fil77 {fill:#4400BA}
    .fil76 {fill:#4900B5}
    .fil75 {fill:#4E00B0}
    .fil74 {fill:#5300AB}
    .fil73 {fill:#5800A6}
    .fil72 {fill:#5D00A1}
    .fil71 {fill:#62009C}
    .fil70 {fill:#670097}
    .fil69 {fill:#6C0093}
    .fil68 {fill:#70008F}
    .fil67 {fill:#74008B}
    .fil66 {fill:#780087}
    .fil65 {fill:#7C0084}
    .fil64 {fill:#7F0080}
    .fil63 {fill:#81007F}
    .fil62 {fill:#83007D}
    .fil61 {fill:#85007C}
    .fil60 {fill:#86007B}
    .fil59 {fill:#880079}
    .fil58 {fill:#8A0078}
    .fil57 {fill:#8B0176}
    .fil56 {fill:#8D0175}
    .fil55 {fill:#8F0173}
    .fil54 {fill:#910172}
    .fil53 {fill:#920171}
    .fil52 {fill:#94026F}
    .fil51 {fill:#96026E}
    .fil50 {fill:#98026C}
    .fil49 {fill:#9A026B}
    .fil48 {fill:#9B036A}
    .fil47 {fill:#9D0368}
    .fil46 {fill:#9F0367}
    .fil45 {fill:#A10465}
    .fil44 {fill:#A30464}
    .fil43 {fill:#A40463}
    .fil42 {fill:#A60561}
    .fil41 {fill:#A80560}
    .fil40 {fill:#AA065F}
    .fil39 {fill:#AC065D}
    .fil38 {fill:#AD065C}
    .fil37 {fill:#AF075B}
    .fil36 {fill:#B1075A}
    .fil35 {fill:#B20858}
    .fil34 {fill:#B40857}
    .fil33 {fill:#B60856}
    .fil32 {fill:#B80955}
    .fil31 {fill:#B90954}
    .fil30 {fill:#BB0A52}
    .fil29 {fill:#BC0A51}
    .fil28 {fill:#BE0B50}
    .fil27 {fill:#C00B4F}
    .fil26 {fill:#C10B4E}
    .fil25 {fill:#C30C4D}
    .fil24 {fill:#C40C4C}
    .fil23 {fill:#C60D4B}
    .fil22 {fill:#C70D4A}
    .fil21 {fill:#C80E49}
    .fil20 {fill:#CA0E48}
    .fil19 {fill:#CB0E47}
    .fil18 {fill:#CC0F46}
    .fil17 {fill:#CD0F46}
    .fil16 {fill:#CF1045}
    .fil15 {fill:#D01044}
    .fil14 {fill:#D11043}
    .fil13 {fill:#D21143}
    .fil12 {fill:#D31142}
    .fil11 {fill:#D41141}
    .fil10 {fill:#D51241}
    .fil9 {fill:#D61240}
    .fil7 {fill:#D7123F}
    .fil8 {fill:#D71240}
    .fil6 {fill:#D8133F}
    .fil5 {fill:#D9133E}
    .fil4 {fill:#DA133D}
    .fil2 {fill:#DB143C}
    .fil3 {fill:#DB143D}
    .fil1 {fill:crimson}
    .fil0 {fill:white}
    .fil97 {fill:crimson;fill-rule:nonzero}
   ]]>
  </style>
    <clipPath id="id0">
     <path d="M92.54 23.04c0,0.03 0,0.06 0,0.09 0,0.37 -0.3,0.67 -0.67,0.67l-2.84 0 0 8.24c0,1.56 -0.59,1.92 -2.02,1.92 -1.42,0 -2.02,-0.36 -2.02,-1.92 0,-2.56 0,-4.58 0,-7.14 0,-0.84 -0.07,-1.1 -0.96,-1.1l-2.78 0c-4.1,0 -8.21,-0.15 -12.32,-0.11 -3.9,0.05 -7.64,-1.32 -8.97,-5.3 -0.88,-2.65 -1.3,-7 -0.62,-9.72 0.85,-3.38 3.66,-4.05 6.71,-4.38 4.05,-0.43 13.85,-0.52 15.37,4.35 0.88,2.83 -0.53,6.24 -1.82,8.75 -0.33,0.64 -0.7,1.21 -1.18,1.76 -0.35,0.39 -0.73,0.77 -1.07,1.16 -0.05,0.07 -0.08,0.15 -0.08,0.24 0,0.2 0.16,0.36 0.37,0.36 0.42,0 1.92,-1.85 2.2,-2.22 0.42,-0.55 0.81,-1.11 1.18,-1.68 0.25,-0.37 0.49,-0.75 0.69,-1.14 0.79,-1.61 1.19,-3.36 1.5,-5.11 0.63,-3.61 -2.2,-4.69 -5.07,-5.65 -6.98,-2.33 -15.4,-1.7 -22.55,-0.33 -0.14,1.03 -0.09,2.13 0.56,3 0.51,0.67 1.33,1.14 1.59,1.99 0.19,0.6 0.28,1.24 0.35,1.86 0.09,0.73 0.15,1.45 0.22,2.18 0.15,1.55 0.36,3.13 0.9,4.6 1.54,4.22 5.22,5.36 9.37,5.42 0.03,0 0.05,0 0.08,0 1.43,0.19 2.87,0.24 4.3,0.42 1.7,0.23 3.34,0.63 4.88,1.41 4.77,2.41 7.19,7.72 8.64,12.59 0.11,0.36 -0.09,0.73 -0.45,0.84 -0.35,0.11 -0.73,-0.1 -0.84,-0.45 -1.33,-4.48 -3.56,-9.56 -7.96,-11.78 -1.4,-0.71 -2.9,-1.07 -4.45,-1.27 -1.41,-0.19 -2.84,-0.23 -4.26,-0.42 -4.72,-0.07 -8.84,-1.54 -10.58,-6.29 -0.58,-1.59 -0.81,-3.27 -0.97,-4.94 -0.07,-0.72 -0.13,-1.44 -0.21,-2.15 -0.07,-0.54 -0.14,-1.1 -0.3,-1.62 -0.01,-0.02 -0.02,-0.04 -0.03,-0.07 -0.09,-0.2 -0.31,-0.41 -0.46,-0.56 -0.32,-0.3 -0.63,-0.6 -0.89,-0.95 -1,-1.32 -1.02,-2.94 -0.74,-4.51 0.05,-0.27 0.26,-0.48 0.53,-0.54 7.51,-1.47 16.34,-2.16 23.7,0.3 3.56,1.19 6.73,2.75 5.97,7.15 -0.33,1.89 -0.77,3.74 -1.62,5.47 -0.22,0.45 -0.5,0.87 -0.77,1.29 -0.39,0.6 -0.8,1.18 -1.24,1.75 -0.65,0.86 -2.12,2.76 -3.27,2.76 -0.95,0 -1.71,-0.77 -1.71,-1.71 0,-0.4 0.13,-0.78 0.39,-1.1 0.35,-0.41 0.74,-0.79 1.09,-1.19 0.41,-0.46 0.71,-0.95 0.99,-1.49 1.11,-2.13 2.49,-5.32 1.74,-7.73 -0.05,-0.16 -0.12,-0.32 -0.2,-0.47 -1.23,-2.32 -5.7,-2.91 -8.06,-3.06 -1.89,-0.12 -3.81,-0.08 -5.69,0.12 -1.41,0.15 -3.25,0.4 -4.37,1.35 -0.63,0.53 -0.98,1.23 -1.18,2.02 -0.62,2.46 -0.21,6.56 0.6,8.96 1.13,3.4 4.39,4.42 7.67,4.39 4.02,-0.04 8.03,0.1 12.04,0.1 -0.22,-0.11 -0.37,-0.34 -0.37,-0.6l0 -1.43c0,-0.37 0.3,-0.67 0.67,-0.67l3.74 0 0 -3.73c0,-0.37 0.3,-0.67 0.67,-0.67l2.69 0c0.38,0 0.68,0.3 0.68,0.67l0 3.73 3.73 0c0.37,0 0.68,0.3 0.68,0.67l0 1.46c0.01,0.08 0.04,0.18 0.09,0.25 0.24,0.32 1.54,0.32 1.92,0.32 3.21,0.01 6.43,-0.14 9.64,-0.1 3.28,0.03 6.54,-0.99 7.68,-4.39 0.8,-2.4 1.21,-6.5 0.59,-8.96 -0.2,-0.79 -0.55,-1.49 -1.18,-2.02 -1.11,-0.95 -2.95,-1.2 -4.37,-1.35 -1.88,-0.2 -3.8,-0.24 -5.69,-0.12 -2.4,0.16 -7.4,0.79 -8.25,3.53 -0.75,2.41 0.63,5.6 1.73,7.73 0.28,0.54 0.59,1.03 0.99,1.49 0.36,0.4 0.74,0.78 1.1,1.19 0,0.01 0,0.01 0,0.01 0.25,0.31 0.39,0.69 0.39,1.09 0,0.94 -0.77,1.71 -1.71,1.71 -1.16,0 -2.62,-1.9 -3.28,-2.76 -0.43,-0.57 -0.85,-1.15 -1.24,-1.75 -0.27,-0.42 -0.54,-0.84 -0.76,-1.29 -0.85,-1.73 -1.29,-3.58 -1.62,-5.47 -0.77,-4.4 2.41,-5.96 5.96,-7.15 7.37,-2.46 16.19,-1.77 23.7,-0.3 0.28,0.06 0.48,0.27 0.53,0.54 0.29,1.57 0.26,3.19 -0.73,4.51 -0.27,0.35 -0.58,0.65 -0.89,0.95 -0.16,0.15 -0.38,0.36 -0.47,0.56 -0.01,0.03 -0.01,0.05 -0.02,0.07 -0.16,0.52 -0.24,1.08 -0.3,1.62 -0.09,0.71 -0.14,1.43 -0.21,2.15 -0.17,1.67 -0.4,3.35 -0.98,4.94 -1.74,4.75 -5.86,6.22 -10.58,6.29 -1.41,0.19 -2.84,0.23 -4.25,0.42 -1.55,0.2 -3.04,0.56 -4.43,1.27 -4.38,2.22 -6.61,7.31 -7.94,11.78 -0.11,0.35 -0.49,0.56 -0.84,0.45 -0.35,-0.11 -0.56,-0.48 -0.45,-0.84 1.45,-4.86 3.86,-10.18 8.62,-12.59 1.53,-0.78 3.16,-1.18 4.87,-1.41 1.42,-0.18 2.86,-0.23 4.29,-0.42 0.02,0 0.05,0 0.08,0 4.15,-0.06 7.83,-1.2 9.37,-5.42 0.54,-1.47 0.75,-3.05 0.9,-4.6 0.07,-0.73 0.13,-1.45 0.21,-2.18 0.07,-0.62 0.17,-1.26 0.35,-1.86 0.27,-0.85 1.09,-1.32 1.59,-1.99 0.66,-0.87 0.7,-1.97 0.56,-3 -7.15,-1.37 -15.57,-2 -22.55,0.33 -2.86,0.96 -5.7,2.04 -5.06,5.65 0.3,1.75 0.7,3.5 1.5,5.11 0.19,0.39 0.44,0.77 0.68,1.14 0.37,0.57 0.77,1.13 1.18,1.68 0.29,0.37 1.78,2.22 2.21,2.22 0.2,0 0.36,-0.16 0.36,-0.36 0,-0.08 -0.02,-0.17 -0.07,-0.22 -0.34,-0.41 -0.72,-0.78 -1.07,-1.18 -0.48,-0.55 -0.85,-1.12 -1.18,-1.76 -1.3,-2.51 -2.71,-5.92 -1.82,-8.75 1.52,-4.87 11.32,-4.78 15.37,-4.35 3.05,0.33 5.85,1 6.71,4.38 0.68,2.72 0.26,7.07 -0.63,9.72 -1.33,3.98 -5.07,5.35 -8.96,5.3 -3.21,-0.03 -6.42,0.11 -9.63,0.11 -0.92,0 -2.24,-0.01 -2.91,-0.76zm-0.3 -0.47c-0.07,-0.17 -0.11,-0.35 -0.14,-0.54 -0.01,-0.03 -0.01,-0.06 -0.01,-0.1l0 -0.84 -3.74 0c-0.37,0 -0.67,-0.3 -0.67,-0.67l0 -3.73 -1.34 0 0 3.73c0,0.37 -0.31,0.67 -0.68,0.67l-3.73 0 0 0.76c0,0.26 -0.15,0.49 -0.37,0.6l2.47 0c1.66,0 2.31,0.85 2.31,2.45 0,2.58 0,4.57 0,7.14 0,0.52 0.42,0.58 0.67,0.58 0.25,0 0.67,-0.06 0.67,-0.58l0 -8.91c0,-0.37 0.3,-0.68 0.67,-0.68l3.52 0c0.14,0 0.26,0.05 0.37,0.12zm-9.05 16.38c-1.18,-3.79 -3.19,-8.5 -7.3,-9.84 -2.29,-0.74 -4.85,-0.36 -7.13,0.23 -1.48,0.38 -2.93,0.87 -4.36,1.4 -1.63,0.61 -3.24,1.26 -4.85,1.91 -3.67,1.48 -7.35,2.95 -11.13,4.11 -4.24,1.3 -8.57,2.21 -13,2.49 -0.37,0.02 -0.69,-0.27 -0.71,-0.64 -0.03,-0.36 0.26,-0.69 0.63,-0.71 4.32,-0.26 8.55,-1.15 12.68,-2.42 3.75,-1.15 7.39,-2.61 11.02,-4.08 3.07,-1.24 6.17,-2.54 9.38,-3.37 2.55,-0.66 5.33,-1.03 7.88,-0.2 4.61,1.5 6.85,6.45 8.18,10.72 0.11,0.36 -0.09,0.73 -0.45,0.84 -0.35,0.11 -0.73,-0.08 -0.84,-0.44zm-1.96 0.58c-0.72,-2.68 -1.99,-5.55 -4.64,-6.81 -2.26,-1.08 -5.07,-0.78 -7.45,-0.28 -1.65,0.35 -3.28,0.83 -4.89,1.35 -1.86,0.6 -3.71,1.27 -5.55,1.93 -4.24,1.51 -8.49,3.02 -12.84,4.19 -4.85,1.3 -9.8,2.19 -14.82,2.34 -0.37,0.01 -0.68,-0.28 -0.7,-0.65 -0.01,-0.37 0.29,-0.68 0.66,-0.7 4.91,-0.14 9.76,-1.01 14.51,-2.29 4.31,-1.16 8.53,-2.65 12.74,-4.16 1.85,-0.67 3.71,-1.33 5.59,-1.94 1.65,-0.53 3.32,-1.03 5.02,-1.39 2.7,-0.56 5.75,-0.84 8.31,0.38 3.05,1.45 4.52,4.59 5.36,7.68 0.09,0.36 -0.12,0.73 -0.48,0.83 -0.35,0.09 -0.73,-0.12 -0.82,-0.48zm-1.81 0.85c-0.33,-1.62 -0.98,-3.23 -2.38,-4.21 -1.93,-1.35 -4.83,-1.16 -7.05,-0.82 -1.74,0.26 -3.46,0.67 -5.17,1.12 -2.04,0.55 -4.07,1.16 -6.09,1.77 -4.82,1.46 -9.63,2.94 -14.53,4.12 -5.59,1.35 -11.28,2.33 -17.03,2.66 -0.36,0.02 -0.68,-0.27 -0.7,-0.64 -0.03,-0.37 0.26,-0.69 0.63,-0.71 5.67,-0.32 11.27,-1.29 16.79,-2.62 4.86,-1.17 9.65,-2.64 14.45,-4.1 2.04,-0.61 4.08,-1.23 6.14,-1.78 1.75,-0.46 3.52,-0.89 5.31,-1.15 2.61,-0.4 5.75,-0.54 8.02,1.04 1.7,1.19 2.53,3.07 2.93,5.05 0.07,0.36 -0.16,0.72 -0.52,0.79 -0.37,0.08 -0.72,-0.16 -0.8,-0.52zm13.84 -0.27c0.4,-1.98 1.23,-3.86 2.93,-5.05 2.27,-1.58 5.41,-1.44 8.02,-1.04 1.79,0.26 3.56,0.69 5.31,1.15 2.06,0.55 4.1,1.17 6.14,1.78 4.79,1.46 9.59,2.93 14.45,4.1 5.52,1.33 11.12,2.3 16.79,2.62 0.37,0.02 0.66,0.34 0.63,0.71 -0.02,0.37 -0.34,0.66 -0.71,0.64 -5.74,-0.33 -11.43,-1.31 -17.02,-2.66 -4.9,-1.18 -9.71,-2.66 -14.53,-4.12 -2.02,-0.61 -4.05,-1.22 -6.09,-1.77 -1.71,-0.45 -3.43,-0.86 -5.17,-1.12 -2.22,-0.34 -5.12,-0.53 -7.05,0.82 -1.4,0.98 -2.05,2.59 -2.38,4.21 -0.08,0.36 -0.43,0.6 -0.8,0.52 -0.36,-0.07 -0.59,-0.43 -0.52,-0.79zm-1.79 -0.93c0.83,-3.09 2.31,-6.23 5.36,-7.68 2.56,-1.22 5.61,-0.94 8.31,-0.38 1.7,0.36 3.37,0.86 5.02,1.39 1.88,0.61 3.74,1.27 5.59,1.94 4.21,1.51 8.43,3 12.74,4.16 4.75,1.28 9.6,2.15 14.51,2.29 0.37,0.02 0.67,0.33 0.66,0.7 -0.02,0.37 -0.33,0.66 -0.7,0.65 -5.02,-0.15 -9.97,-1.04 -14.82,-2.34 -4.35,-1.17 -8.6,-2.68 -12.84,-4.19 -1.84,-0.66 -3.69,-1.33 -5.55,-1.93 -1.61,-0.52 -3.24,-1 -4.89,-1.35 -2.38,-0.5 -5.19,-0.8 -7.46,0.28 -2.64,1.26 -3.91,4.13 -4.63,6.81 -0.09,0.36 -0.47,0.57 -0.82,0.48 -0.36,-0.1 -0.57,-0.47 -0.48,-0.83zm-1.95 -0.63c1.33,-4.27 3.57,-9.22 8.18,-10.72 2.55,-0.83 5.33,-0.46 7.88,0.2 3.21,0.83 6.31,2.13 9.38,3.37 3.63,1.47 7.27,2.93 11.02,4.08 4.13,1.27 8.36,2.16 12.68,2.42 0.37,0.02 0.65,0.35 0.63,0.71 -0.02,0.37 -0.34,0.66 -0.71,0.64 -4.43,-0.28 -8.76,-1.19 -13,-2.49 -3.78,-1.16 -7.46,-2.63 -11.13,-4.11 -1.61,-0.65 -3.22,-1.3 -4.85,-1.91 -1.43,-0.53 -2.88,-1.02 -4.36,-1.4 -2.28,-0.59 -4.84,-0.97 -7.13,-0.23 -4.11,1.34 -6.12,6.05 -7.3,9.84 -0.11,0.36 -0.49,0.55 -0.84,0.44 -0.36,-0.11 -0.56,-0.48 -0.45,-0.84zm8.37 2.01l0 2.44c0,0.25 -0.08,0.47 -0.25,0.65 -2.6,2.95 -6.8,4.28 -10.64,4.28 -3.84,0 -8.04,-1.33 -10.64,-4.28 -0.17,-0.18 -0.25,-0.4 -0.25,-0.65l0 -2.44 -53.54 8.04c-0.54,0.08 -1.04,-0.29 -1.12,-0.83 -0.09,-0.54 0.29,-1.04 0.83,-1.12l54.67 -8.21c0.29,-0.05 0.57,0.03 0.8,0.23 0.22,0.19 0.34,0.45 0.34,0.75l0 3.19c2.23,2.32 5.76,3.34 8.91,3.34 3.14,0 6.68,-1.02 8.91,-3.33l0 -3.2c0,-0.3 0.12,-0.56 0.34,-0.75 0.23,-0.2 0.5,-0.28 0.8,-0.23l54.67 8.21c0.54,0.08 0.92,0.58 0.83,1.12 -0.08,0.54 -0.58,0.91 -1.12,0.83l-53.54 -8.04z"/>
    </clipPath>
 </defs>
 <g id="Layer_x0020_1">
  <metadata id="CorelCorpID_0Corel-Layer"/>
  <path class="fil0" d="M86.96 4.9c1.69,-0.91 4.2,-1.96 7.77,-3.15 7.78,-2.6 16.9,-1.93 24.83,-0.37 1.17,0.23 2.07,1.14 2.28,2.31 0.4,2.2 0.24,4.4 -1.15,6.23 -0.33,0.44 -0.72,0.82 -1.11,1.21 0,0 0,0 0,0 -0.07,0.3 -0.1,0.62 -0.14,0.92 -0.08,0.7 -0.13,1.4 -0.2,2.1 -0.19,1.87 -0.46,3.72 -1.1,5.49 -1.56,4.24 -4.71,6.44 -8.59,7.3 2.1,0.73 4.17,1.58 6.23,2.42 3.58,1.44 7.16,2.88 10.84,4.01 3.96,1.21 8.04,2.08 12.18,2.33 1.53,0.09 2.73,1.4 2.7,2.93 0.52,0.03 1.05,0.05 1.57,0.07 1.5,0.04 2.7,1.23 2.79,2.69 0.39,0.03 0.78,0.06 1.17,0.08 1.44,0.08 2.59,1.24 2.7,2.64l2.32 0.35c1.75,0.26 2.95,1.9 2.69,3.64 -0.14,0.91 -0.65,1.67 -1.35,2.16l4.65 0c1.17,0 2.28,0.41 2.99,1.39 0.02,0.03 0.04,0.06 0.06,0.08 0.05,-0.03 0.09,-0.06 0.14,-0.09 1.52,-1.11 3.28,-1.64 5.16,-1.64 1.22,0 2.42,0.3 3.54,0.79 1.64,0.71 2.99,2 2.99,3.91 0,0.16 -0.01,0.32 -0.02,0.49 0,0.14 0,0.28 0,0.43 0,0.05 0.01,0.09 0.02,0.14l0.02 0.2 0 0.2c0,1.56 -0.82,2.9 -2.16,3.41 0.54,0.5 1.04,1.02 1.44,1.55 1.04,1.37 1.63,2.95 1.63,4.67 0,2.36 -0.98,4.39 -2.9,5.77 -1.61,1.15 -3.44,1.76 -5.42,1.76 -1.28,0 -2.54,-0.25 -3.74,-0.7 -0.63,0.39 -1.36,0.53 -2.13,0.53l-9.46 0c-0.81,0 -1.69,-0.05 -2.44,-0.36 -0.25,-0.1 -0.48,-0.23 -0.69,-0.37 -0.59,0.45 -1.34,0.71 -2.18,0.71 -0.49,0 -0.99,-0.07 -1.47,-0.15 -0.18,-0.03 -0.39,-0.06 -0.53,-0.07 -0.15,0.01 -0.31,0.04 -0.45,0.06 -0.44,0.07 -0.9,0.13 -1.35,0.13 -0.77,0 -1.52,-0.2 -2.17,-0.63 -0.28,-0.18 -0.53,-0.4 -0.75,-0.65 -0.54,0.9 -1.52,1.5 -2.69,1.5 -0.8,0 -1.56,-0.26 -2.18,-0.78 -1.66,-1.41 -1.31,-1.76 -3.75,-2.76 0,0.79 -0.27,1.55 -0.79,2.16 -0.7,0.79 -1.61,1.11 -2.65,1.11 -0.49,0 -0.99,-0.05 -1.48,-0.12 -0.21,-0.02 -0.44,-0.06 -0.58,-0.07 -0.21,0.01 -0.46,0.05 -0.67,0.07 -0.41,0.06 -0.86,0.12 -1.28,0.12 -0.15,0 -0.29,0 -0.44,-0.02 -0.36,0.08 -0.74,0.12 -1.13,0.12l-9.46 0c-0.65,0 -1.34,-0.03 -1.97,-0.2 -0.23,0.04 -0.47,0.06 -0.71,0.06 -0.46,0 -0.95,-0.08 -1.4,-0.14 -0.26,-0.04 -0.55,-0.08 -0.8,-0.08 -0.25,0.01 -0.55,0.05 -0.81,0.08 -0.51,0.07 -1.05,0.14 -1.56,0.14 -2.82,-0.13 -3.74,-1.81 -4.34,-3.21 -0.3,1.53 -2.44,3.23 -4.28,3.23 -0.42,0 -0.89,-0.09 -1.3,-0.17 -0.14,-0.02 -0.28,-0.05 -0.42,-0.07 -0.12,0.02 -0.25,0.05 -0.36,0.07 -0.47,0.1 -0.98,0.19 -1.47,0.19 -0.19,0 -0.38,-0.01 -0.56,-0.04 -0.25,0.05 -0.5,0.07 -0.76,0.07 -0.41,0 -0.85,-0.06 -1.26,-0.11 -0.31,-0.04 -0.63,-0.06 -0.94,-0.06 -0.32,0 -0.64,0.03 -0.95,0.07 -0.44,0.06 -0.91,0.12 -1.35,0.12 -2.36,0 -3.84,-1.94 -4.39,-3.8 -0.31,1.89 -2.14,3.75 -4.1,3.75 -0.4,0 -0.83,-0.06 -1.22,-0.12 -0.2,-0.03 -0.43,-0.07 -0.63,-0.07 -0.13,0 -0.25,0.02 -0.38,0.04 -0.38,0.07 -0.78,0.13 -1.18,0.13 -0.82,0 -1.61,-0.26 -2.26,-0.78 -0.05,-0.05 -0.1,-0.09 -0.15,-0.14 -0.17,0.08 -0.34,0.16 -0.5,0.23 -1.38,0.57 -2.83,0.86 -4.32,0.86 -2.19,0 -4.31,-0.47 -6.2,-1.59 -0.32,-0.19 -0.62,-0.39 -0.92,-0.6 -0.51,1.3 -1.84,2.07 -3.34,2.07 -0.48,0 -0.97,-0.07 -1.44,-0.15 -0.15,-0.03 -0.34,-0.06 -0.46,-0.07 -0.18,0.01 -0.38,0.04 -0.56,0.06 -0.43,0.06 -0.88,0.11 -1.31,0.11 -0.29,0 -0.58,-0.03 -0.85,-0.08 -0.46,0.17 -0.98,0.24 -1.53,0.19l-0.09 -0.01c-0.28,-0.03 -0.61,-0.03 -0.89,-0.03l-9.11 0c-1.2,0 -2.33,-0.4 -3.07,-1.17 -1.74,0.86 -3.74,1.15 -5.68,1.15 -2.11,0 -4.37,0.06 -6.48,-0.05 -0.33,-0.02 -0.64,-0.07 -0.94,-0.15 -0.4,0.13 -0.83,0.2 -1.27,0.2 -0.48,0 -0.97,-0.07 -1.44,-0.15 -0.15,-0.03 -0.34,-0.06 -0.46,-0.07 -0.18,0.01 -0.38,0.04 -0.56,0.06 -0.43,0.06 -0.88,0.11 -1.31,0.11 -1.15,0 -2.21,-0.43 -2.9,-1.19 -1.77,0.94 -3.84,1.24 -5.83,1.24 -2.12,0 -4.38,0.06 -6.49,-0.05 -1.9,-0.1 -3.55,-1.28 -3.55,-3.32 0,-0.8 0.28,-1.57 0.75,-2.13 0.3,-0.38 0.66,-0.65 1.05,-0.85l0 -10.06c-0.28,-0.14 -0.55,-0.33 -0.8,-0.56l-0.04 -0.04c-0.64,-0.65 -0.98,-1.51 -0.98,-2.42 0,-1.18 0.63,-2.22 1.65,-2.81 0.6,-0.35 1.28,-0.51 1.98,-0.51l6.32 0c1.76,0 3.38,0.59 4.78,1.66 0.21,0.16 0.4,0.32 0.58,0.5 0.22,-0.56 0.6,-1.05 1.1,-1.42 0.6,-0.44 1.31,-0.67 2.05,-0.67 0.51,0 1.05,0.08 1.55,0.16 0.2,0.03 0.46,0.08 0.65,0.08 0.17,0 0.37,-0.03 0.54,-0.06 -1,-0.42 -1.77,-1.33 -1.94,-2.48 -0.26,-1.74 0.94,-3.38 2.69,-3.64l2.31 -0.35c0.12,-1.4 1.27,-2.56 2.71,-2.64 0.39,-0.02 0.78,-0.05 1.17,-0.08 0.09,-1.46 1.29,-2.65 2.79,-2.69 0.52,-0.02 1.05,-0.04 1.57,-0.07 -0.03,-1.53 1.17,-2.84 2.7,-2.93 4.14,-0.25 8.22,-1.12 12.18,-2.33 3.68,-1.13 7.26,-2.57 10.83,-4.01 2.07,-0.84 4.14,-1.69 6.24,-2.42 -3.88,-0.86 -7.03,-3.06 -8.58,-7.3 -0.65,-1.77 -0.92,-3.62 -1.1,-5.49 -0.07,-0.7 -0.12,-1.4 -0.21,-2.1 -0.03,-0.3 -0.07,-0.62 -0.14,-0.92 0,0 0,0 0,0 -0.39,-0.39 -0.77,-0.77 -1.1,-1.21 -1.39,-1.83 -1.55,-4.03 -1.15,-6.23 0.21,-1.17 1.11,-2.08 2.28,-2.31 7.93,-1.56 17.05,-2.23 24.82,0.37 3.56,1.19 6.04,2.24 7.69,3.15z"/>
  <g>
   <g style="clip-path:url(#id0)">
    <polygon class="fil1" points="87.01,34.52 86.56,108.07 83.85,108 "/>
    <polygon id="1" class="fil1" points="87.01,34.52 84.3,108.01 82.05,107.9 "/>
    <polygon id="2" class="fil1" points="87.01,34.52 82.5,107.92 80.25,107.75 "/>
    <polygon id="3" class="fil2" points="87.01,34.52 80.7,107.79 78.45,107.56 "/>
    <polygon id="4" class="fil3" points="87.01,34.52 78.9,107.61 76.66,107.33 "/>
    <polygon id="5" class="fil3" points="87.01,34.52 77.11,107.39 74.88,107.05 "/>
    <polygon id="6" class="fil4" points="87.01,34.52 75.33,107.12 73.1,106.73 "/>
    <polygon id="7" class="fil4" points="87.01,34.52 73.55,106.81 71.33,106.37 "/>
    <polygon id="8" class="fil5" points="87.01,34.52 71.78,106.46 69.58,105.96 "/>
    <polygon id="9" class="fil5" points="87.01,34.52 70.02,106.06 67.83,105.51 "/>
    <polygon id="10" class="fil6" points="87.01,34.52 68.26,105.62 66.09,105.02 "/>
    <polygon id="11" class="fil7" points="87.01,34.52 66.53,105.14 64.37,104.48 "/>
    <polygon id="12" class="fil8" points="87.01,34.52 64.8,104.61 62.66,103.9 "/>
    <polygon id="13" class="fil9" points="87.01,34.52 63.08,104.05 60.96,103.29 "/>
    <polygon id="14" class="fil10" points="87.01,34.52 61.38,103.44 59.28,102.62 "/>
    <polygon id="15" class="fil11" points="87.01,34.52 59.7,102.79 57.62,101.92 "/>
    <polygon id="16" class="fil12" points="87.01,34.52 58.03,102.1 55.97,101.18 "/>
    <polygon id="17" class="fil13" points="87.01,34.52 56.38,101.36 54.34,100.4 "/>
    <polygon id="18" class="fil14" points="87.01,34.52 54.75,100.59 52.74,99.57 "/>
    <polygon id="19" class="fil15" points="87.01,34.52 53.14,99.78 51.15,98.71 "/>
    <polygon id="20" class="fil16" points="87.01,34.52 51.55,98.93 49.58,97.81 "/>
    <polygon id="21" class="fil17" points="87.01,34.52 49.98,98.04 48.04,96.87 "/>
    <polygon id="22" class="fil18" points="87.01,34.52 48.43,97.11 46.52,95.9 "/>
    <polygon id="23" class="fil19" points="87.01,34.52 46.9,96.14 45.03,94.88 "/>
    <polygon id="24" class="fil20" points="87.01,34.52 45.4,95.14 43.56,93.84 "/>
    <polygon id="25" class="fil21" points="87.01,34.52 43.93,94.1 42.11,92.75 "/>
    <polygon id="26" class="fil22" points="87.01,34.52 42.48,93.02 40.7,91.63 "/>
    <polygon id="27" class="fil23" points="87.01,34.52 41.05,91.91 39.31,90.48 "/>
    <polygon id="28" class="fil24" points="87.01,34.52 39.66,90.76 37.95,89.29 "/>
    <polygon id="29" class="fil25" points="87.01,34.52 38.29,89.58 36.62,88.07 "/>
    <polygon id="30" class="fil26" points="87.01,34.52 36.95,88.37 35.32,86.81 "/>
    <polygon id="31" class="fil27" points="87.01,34.52 35.65,87.12 34.05,85.53 "/>
    <polygon id="32" class="fil28" points="87.01,34.52 34.37,85.85 32.81,84.21 "/>
    <polygon id="33" class="fil29" points="87.01,34.52 33.13,84.54 31.61,82.87 "/>
    <polygon id="34" class="fil30" points="87.01,34.52 31.91,83.2 30.44,81.49 "/>
    <polygon id="35" class="fil31" points="87.01,34.52 30.73,81.83 29.3,80.09 "/>
    <polygon id="36" class="fil32" points="87.01,34.52 29.59,80.44 28.2,78.66 "/>
    <polygon id="37" class="fil33" points="87.01,34.52 28.48,79.01 27.13,77.2 "/>
    <polygon id="38" class="fil34" points="87.01,34.52 27.4,77.56 26.1,75.72 "/>
    <polygon id="39" class="fil35" points="87.01,34.52 26.36,76.09 25.11,74.21 "/>
    <polygon id="40" class="fil36" points="87.01,34.52 25.36,74.59 24.15,72.68 "/>
    <polygon id="41" class="fil37" points="87.01,34.52 24.4,73.06 23.24,71.12 "/>
    <polygon id="42" class="fil38" points="87.01,34.52 23.47,71.51 22.36,69.55 "/>
    <polygon id="43" class="fil39" points="87.01,34.52 22.58,69.94 21.51,67.95 "/>
    <polygon id="44" class="fil40" points="87.01,34.52 21.73,68.35 20.71,66.33 "/>
    <polygon id="45" class="fil41" points="87.01,34.52 20.92,66.74 19.95,64.69 "/>
    <polygon id="46" class="fil42" points="87.01,34.52 20.14,65.1 19.23,63.04 "/>
    <polygon id="47" class="fil43" points="87.01,34.52 19.41,63.45 18.55,61.37 "/>
    <polygon id="48" class="fil44" points="87.01,34.52 18.72,61.78 17.91,59.68 "/>
    <polygon id="49" class="fil45" points="87.01,34.52 18.07,60.1 17.31,57.97 "/>
    <polygon id="50" class="fil46" points="87.01,34.52 17.46,58.4 16.76,56.26 "/>
    <polygon id="51" class="fil47" points="87.01,34.52 16.9,56.69 16.24,54.53 "/>
    <polygon id="52" class="fil48" points="87.01,34.52 16.37,54.96 15.77,52.78 "/>
    <polygon id="53" class="fil49" points="87.01,34.52 15.89,53.22 15.34,51.03 "/>
    <polygon id="54" class="fil50" points="87.01,34.52 15.45,51.47 14.96,49.27 "/>
    <polygon id="55" class="fil51" points="87.01,34.52 15.06,49.71 14.62,47.49 "/>
    <polygon id="56" class="fil52" points="87.01,34.52 14.71,47.93 14.32,45.71 "/>
    <polygon id="57" class="fil53" points="87.01,34.52 14.4,46.16 14.07,43.92 "/>
    <polygon id="58" class="fil54" points="87.01,34.52 14.13,44.37 13.86,42.13 "/>
    <polygon id="59" class="fil55" points="87.01,34.52 13.91,42.58 13.69,40.33 "/>
    <polygon id="60" class="fil56" points="87.01,34.52 13.74,40.78 13.57,38.53 "/>
    <polygon id="61" class="fil57" points="87.01,34.52 13.6,38.98 13.49,36.73 "/>
    <polygon id="62" class="fil58" points="87.01,34.52 13.51,37.18 13.46,34.92 "/>
    <polygon id="63" class="fil59" points="87.01,34.52 13.47,35.38 13.47,33.12 "/>
    <polygon id="64" class="fil60" points="87.01,34.52 13.47,33.57 13.52,31.31 "/>
    <polygon id="65" class="fil61" points="87.01,34.52 13.51,31.77 13.62,29.51 "/>
    <polygon id="66" class="fil62" points="87.01,34.52 13.6,29.96 13.77,27.71 "/>
    <polygon id="67" class="fil63" points="87.01,34.52 13.74,28.16 13.96,25.92 "/>
    <polygon id="68" class="fil64" points="87.01,34.52 13.91,26.37 14.19,24.13 "/>
    <polygon id="69" class="fil65" points="87.01,34.52 14.13,24.58 14.46,22.34 "/>
    <polygon id="70" class="fil66" points="87.01,34.52 14.4,22.79 14.78,20.57 "/>
    <polygon id="71" class="fil67" points="87.01,34.52 14.71,21.01 15.15,18.8 "/>
    <polygon id="72" class="fil68" points="87.01,34.52 15.06,19.24 15.55,17.04 "/>
    <polygon id="73" class="fil69" points="87.01,34.52 15.45,17.48 16,15.29 "/>
    <polygon id="74" class="fil70" points="87.01,34.52 15.89,15.73 16.49,13.56 "/>
    <polygon id="75" class="fil71" points="87.01,34.52 16.37,13.99 17.03,11.83 "/>
    <polygon id="76" class="fil72" points="87.01,34.52 16.9,12.26 17.61,10.12 "/>
    <polygon id="77" class="fil73" points="87.01,34.52 17.46,10.55 18.22,8.43 "/>
    <polygon id="78" class="fil74" points="87.01,34.52 18.07,8.85 18.88,6.75 "/>
    <polygon id="79" class="fil75" points="87.01,34.52 18.72,7.17 19.59,5.08 "/>
    <polygon id="80" class="fil76" points="87.01,34.52 19.41,5.5 20.33,3.44 "/>
    <polygon id="81" class="fil77" points="87.01,34.52 20.14,3.85 21.11,1.81 "/>
    <polygon id="82" class="fil78" points="87.01,34.52 20.92,2.22 21.93,0.2 "/>
    <polygon id="83" class="fil79" points="87.01,34.52 21.73,0.61 22.79,-1.38 "/>
    <polygon id="84" class="fil80" points="87.01,34.52 22.58,-0.98 23.69,-2.95 "/>
    <polygon id="85" class="fil81" points="87.01,34.52 23.47,-2.55 24.63,-4.49 "/>
    <polygon id="86" class="fil82" points="87.01,34.52 24.4,-4.1 25.6,-6.01 "/>
    <polygon id="87" class="fil83" points="87.01,34.52 25.36,-5.63 26.62,-7.5 "/>
    <polygon id="88" class="fil84" points="87.01,34.52 26.36,-7.13 27.66,-8.97 "/>
    <polygon id="89" class="fil85" points="87.01,34.52 27.4,-8.6 28.75,-10.41 "/>
    <polygon id="90" class="fil86" points="87.01,34.52 28.48,-10.05 29.87,-11.83 "/>
    <polygon id="91" class="fil87" points="87.01,34.52 29.59,-11.47 31.02,-13.22 "/>
    <polygon id="92" class="fil88" points="87.01,34.52 30.73,-12.87 32.21,-14.58 "/>
    <polygon id="93" class="fil89" points="87.01,34.52 31.91,-14.23 33.43,-15.91 "/>
    <polygon id="94" class="fil90" points="87.01,34.52 33.13,-15.57 34.68,-17.2 "/>
    <polygon id="95" class="fil91" points="87.01,34.52 34.37,-16.88 35.97,-18.47 "/>
    <polygon id="96" class="fil92" points="87.01,34.52 35.65,-18.15 37.28,-19.71 "/>
    <polygon id="97" class="fil93" points="87.01,34.52 36.95,-19.4 38.63,-20.91 "/>
    <polygon id="98" class="fil94" points="87.01,34.52 38.29,-20.61 40,-22.08 "/>
    <polygon id="99" class="fil95" points="87.01,34.52 39.66,-21.79 41.4,-23.22 "/>
    <polygon id="100" class="fil96" points="87.01,34.52 41.05,-22.93 42.83,-24.32 "/>
    <polygon id="101" class="fil96" points="87.01,34.52 42.48,-24.04 44.29,-25.38 "/>
    <polygon id="102" class="fil96" points="87.01,34.52 43.93,-25.11 45.77,-26.41 "/>
    <polygon id="103" class="fil96" points="87.01,34.52 45.4,-26.15 47.28,-27.41 "/>
    <polygon id="104" class="fil96" points="87.01,34.52 46.9,-27.16 48.81,-28.36 "/>
    <polygon id="105" class="fil96" points="87.01,34.52 48.43,-28.12 50.36,-29.28 "/>
    <polygon id="106" class="fil96" points="87.01,34.52 49.98,-29.05 51.94,-30.16 "/>
    <polygon id="107" class="fil96" points="87.01,34.52 51.55,-29.94 53.54,-31 "/>
    <polygon id="108" class="fil96" points="87.01,34.52 53.14,-30.79 55.15,-31.8 "/>
    <polygon id="109" class="fil96" points="87.01,34.52 54.75,-31.6 56.79,-32.56 "/>
    <polygon id="110" class="fil96" points="87.01,34.52 56.38,-32.37 58.45,-33.28 "/>
    <polygon id="111" class="fil96" points="87.01,34.52 58.03,-33.1 60.12,-33.96 "/>
    <polygon id="112" class="fil96" points="87.01,34.52 59.7,-33.79 61.81,-34.6 "/>
    <polygon id="113" class="fil96" points="87.01,34.52 61.38,-34.44 63.51,-35.19 "/>
    <polygon id="114" class="fil96" points="87.01,34.52 63.08,-35.04 65.23,-35.75 "/>
    <polygon id="115" class="fil96" points="87.01,34.52 64.8,-35.61 66.96,-36.26 "/>
    <polygon id="116" class="fil96" points="87.01,34.52 66.53,-36.13 68.7,-36.73 "/>
    <polygon id="117" class="fil96" points="87.01,34.52 68.26,-36.61 70.45,-37.16 "/>
    <polygon id="118" class="fil96" points="87.01,34.52 70.02,-37.05 72.22,-37.54 "/>
    <polygon id="119" class="fil96" points="87.01,34.52 71.78,-37.44 73.99,-37.88 "/>
    <polygon id="120" class="fil96" points="87.01,34.52 73.55,-37.79 75.77,-38.18 "/>
    <polygon id="121" class="fil96" points="87.01,34.52 75.33,-38.1 77.56,-38.43 "/>
    <polygon id="122" class="fil96" points="87.01,34.52 77.11,-38.37 79.35,-38.64 "/>
    <polygon id="123" class="fil96" points="87.01,34.52 78.9,-38.59 81.15,-38.81 "/>
    <polygon id="124" class="fil96" points="87.01,34.52 80.7,-38.76 82.95,-38.93 "/>
    <polygon id="125" class="fil96" points="87.01,34.52 82.5,-38.89 84.75,-39 "/>
    <polygon id="126" class="fil96" points="87.01,34.52 84.3,-38.98 86.56,-39.03 "/>
    <polygon id="127" class="fil96" points="87.01,34.52 86.11,-39.02 88.36,-39.02 "/>
    <polygon id="128" class="fil96" points="87.01,34.52 87.91,-39.02 90.17,-38.97 "/>
    <polygon id="129" class="fil96" points="87.01,34.52 89.72,-38.98 91.97,-38.87 "/>
    <polygon id="130" class="fil96" points="87.01,34.52 91.52,-38.89 93.77,-38.72 "/>
    <polygon id="131" class="fil96" points="87.01,34.52 93.32,-38.75 95.56,-38.53 "/>
    <polygon id="132" class="fil96" points="87.01,34.52 95.12,-38.58 97.35,-38.3 "/>
    <polygon id="133" class="fil96" points="87.01,34.52 96.91,-38.35 99.14,-38.02 "/>
    <polygon id="134" class="fil96" points="87.01,34.52 98.69,-38.09 100.92,-37.7 "/>
    <polygon id="135" class="fil96" points="87.01,34.52 100.47,-37.78 102.68,-37.34 "/>
    <polygon id="136" class="fil96" points="87.01,34.52 102.24,-37.43 104.44,-36.93 "/>
    <polygon id="137" class="fil96" points="87.01,34.52 104,-37.03 106.19,-36.48 "/>
    <polygon id="138" class="fil96" points="87.01,34.52 105.75,-36.59 107.93,-35.99 "/>
    <polygon id="139" class="fil96" points="87.01,34.52 107.49,-36.11 109.65,-35.45 "/>
    <polygon id="140" class="fil96" points="87.01,34.52 109.22,-35.58 111.36,-34.87 "/>
    <polygon id="141" class="fil96" points="87.01,34.52 110.93,-35.01 113.06,-34.25 "/>
    <polygon id="142" class="fil96" points="87.01,34.52 112.63,-34.41 114.74,-33.59 "/>
    <polygon id="143" class="fil96" points="87.01,34.52 114.32,-33.75 116.4,-32.89 "/>
    <polygon id="144" class="fil96" points="87.01,34.52 115.99,-33.06 118.05,-32.15 "/>
    <polygon id="145" class="fil96" points="87.01,34.52 117.64,-32.33 119.68,-31.36 "/>
    <polygon id="146" class="fil96" points="87.01,34.52 119.27,-31.56 121.28,-30.54 "/>
    <polygon id="147" class="fil96" points="87.01,34.52 120.88,-30.75 122.87,-29.68 "/>
    <polygon id="148" class="fil96" points="87.01,34.52 122.47,-29.89 124.43,-28.78 "/>
    <polygon id="149" class="fil96" points="87.01,34.52 124.04,-29 125.98,-27.84 "/>
    <polygon id="150" class="fil96" points="87.01,34.52 125.59,-28.07 127.5,-26.87 "/>
    <polygon id="151" class="fil96" points="87.01,34.52 127.12,-27.11 128.99,-25.85 "/>
    <polygon id="152" class="fil96" points="87.01,34.52 128.62,-26.1 130.46,-24.8 "/>
    <polygon id="153" class="fil96" points="87.01,34.52 130.09,-25.06 131.9,-23.72 "/>
    <polygon id="154" class="fil95" points="87.01,34.52 131.54,-23.99 133.32,-22.6 "/>
    <polygon id="155" class="fil94" points="87.01,34.52 132.96,-22.88 134.71,-21.44 "/>
    <polygon id="156" class="fil93" points="87.01,34.52 134.36,-21.73 136.07,-20.26 "/>
    <polygon id="157" class="fil92" points="87.01,34.52 135.73,-20.55 137.4,-19.03 "/>
    <polygon id="158" class="fil91" points="87.01,34.52 137.06,-19.34 138.7,-17.78 "/>
    <polygon id="159" class="fil90" points="87.01,34.52 138.37,-18.09 139.97,-16.5 "/>
    <polygon id="160" class="fil89" points="87.01,34.52 139.65,-16.81 141.2,-15.18 "/>
    <polygon id="161" class="fil88" points="87.01,34.52 140.89,-15.51 142.41,-13.83 "/>
    <polygon id="162" class="fil87" points="87.01,34.52 142.1,-14.17 143.58,-12.46 "/>
    <polygon id="163" class="fil86" points="87.01,34.52 143.28,-12.8 144.71,-11.06 "/>
    <polygon id="164" class="fil85" points="87.01,34.52 144.43,-11.41 145.82,-9.63 "/>
    <polygon id="165" class="fil84" points="87.01,34.52 145.54,-9.98 146.88,-8.17 "/>
    <polygon id="166" class="fil83" points="87.01,34.52 146.61,-8.53 147.91,-6.69 "/>
    <polygon id="167" class="fil82" points="87.01,34.52 147.65,-7.05 148.91,-5.18 "/>
    <polygon id="168" class="fil81" points="87.01,34.52 148.66,-5.55 149.86,-3.65 "/>
    <polygon id="169" class="fil80" points="87.01,34.52 149.62,-4.03 150.78,-2.09 "/>
    <polygon id="170" class="fil79" points="87.01,34.52 150.55,-2.48 151.66,-0.52 "/>
    <polygon id="171" class="fil78" points="87.01,34.52 151.44,-0.91 152.5,1.08 "/>
    <polygon id="172" class="fil77" points="87.01,34.52 152.29,0.68 153.31,2.7 "/>
    <polygon id="173" class="fil76" points="87.01,34.52 153.1,2.3 154.07,4.34 "/>
    <polygon id="174" class="fil75" points="87.01,34.52 153.87,3.93 154.79,5.99 "/>
    <polygon id="175" class="fil74" points="87.01,34.52 154.61,5.58 155.47,7.66 "/>
    <polygon id="176" class="fil73" points="87.01,34.52 155.3,7.25 156.11,9.35 "/>
    <polygon id="177" class="fil72" points="87.01,34.52 155.95,8.93 156.71,11.06 "/>
    <polygon id="178" class="fil71" points="87.01,34.52 156.55,10.63 157.26,12.77 "/>
    <polygon id="179" class="fil70" points="87.01,34.52 157.12,12.35 157.78,14.51 "/>
    <polygon id="180" class="fil69" points="87.01,34.52 157.64,14.07 158.25,16.25 "/>
    <polygon id="181" class="fil68" points="87.01,34.52 158.13,15.81 158.67,18 "/>
    <polygon id="182" class="fil67" points="87.01,34.52 158.56,17.56 159.06,19.77 "/>
    <polygon id="183" class="fil66" points="87.01,34.52 158.96,19.33 159.4,21.54 "/>
    <polygon id="184" class="fil65" points="87.01,34.52 159.31,21.1 159.7,23.32 "/>
    <polygon id="185" class="fil64" points="87.01,34.52 159.62,22.88 159.95,25.11 "/>
    <polygon id="186" class="fil63" points="87.01,34.52 159.89,24.66 160.16,26.9 "/>
    <polygon id="187" class="fil62" points="87.01,34.52 160.11,26.45 160.33,28.7 "/>
    <polygon id="188" class="fil61" points="87.01,34.52 160.28,28.25 160.45,30.5 "/>
    <polygon id="189" class="fil60" points="87.01,34.52 160.42,30.05 160.53,32.3 "/>
    <polygon id="190" class="fil59" points="87.01,34.52 160.5,31.85 160.56,34.11 "/>
    <polygon id="191" class="fil58" points="87.01,34.52 160.55,33.66 160.55,35.91 "/>
    <polygon id="192" class="fil57" points="87.01,34.52 160.55,35.46 160.49,37.72 "/>
    <polygon id="193" class="fil56" points="87.01,34.52 160.5,37.27 160.39,39.52 "/>
    <polygon id="194" class="fil55" points="87.01,34.52 160.42,39.07 160.25,41.32 "/>
    <polygon id="195" class="fil54" points="87.01,34.52 160.28,40.87 160.06,43.11 "/>
    <polygon id="196" class="fil53" points="87.01,34.52 160.11,42.67 159.83,44.9 "/>
    <polygon id="197" class="fil52" points="87.01,34.52 159.89,44.46 159.55,46.69 "/>
    <polygon id="198" class="fil51" points="87.01,34.52 159.62,46.24 159.23,48.47 "/>
    <polygon id="199" class="fil50" points="87.01,34.52 159.31,48.02 158.87,50.23 "/>
    <polygon id="200" class="fil49" points="87.01,34.52 158.96,49.79 158.47,51.99 "/>
    <polygon id="201" class="fil48" points="87.01,34.52 158.56,51.55 158.02,53.74 "/>
    <polygon id="202" class="fil47" points="87.01,34.52 158.13,53.3 157.52,55.48 "/>
    <polygon id="203" class="fil46" points="87.01,34.52 157.64,55.04 156.99,57.2 "/>
    <polygon id="204" class="fil45" points="87.01,34.52 157.12,56.77 156.41,58.91 "/>
    <polygon id="205" class="fil44" points="87.01,34.52 156.55,58.48 155.79,60.61 "/>
    <polygon id="206" class="fil43" points="87.01,34.52 155.95,60.18 155.13,62.29 "/>
    <polygon id="207" class="fil42" points="87.01,34.52 155.3,61.86 154.43,63.95 "/>
    <polygon id="208" class="fil41" points="87.01,34.52 154.61,63.53 153.69,65.59 "/>
    <polygon id="209" class="fil40" points="87.01,34.52 153.87,65.18 152.91,67.22 "/>
    <polygon id="210" class="fil39" points="87.01,34.52 153.1,66.81 152.09,68.83 "/>
    <polygon id="211" class="fil38" points="87.01,34.52 152.29,68.43 151.23,70.41 "/>
    <polygon id="212" class="fil37" points="87.01,34.52 151.44,70.02 150.33,71.98 "/>
    <polygon id="213" class="fil36" points="87.01,34.52 150.55,71.59 149.39,73.52 "/>
    <polygon id="214" class="fil35" points="87.01,34.52 149.62,73.13 148.41,75.04 "/>
    <polygon id="215" class="fil34" points="87.01,34.52 148.66,74.66 147.4,76.53 "/>
    <polygon id="216" class="fil33" points="87.01,34.52 147.65,76.16 146.35,78 "/>
    <polygon id="217" class="fil32" points="87.01,34.52 146.61,77.63 145.27,79.45 "/>
    <polygon id="218" class="fil31" points="87.01,34.52 145.54,79.08 144.15,80.86 "/>
    <polygon id="219" class="fil30" points="87.01,34.52 144.43,80.51 143,82.25 "/>
    <polygon id="220" class="fil29" points="87.01,34.52 143.28,81.9 141.81,83.61 "/>
    <polygon id="221" class="fil28" points="87.01,34.52 142.1,83.27 140.59,84.94 "/>
    <polygon id="222" class="fil27" points="87.01,34.52 140.89,84.6 139.34,86.24 "/>
    <polygon id="223" class="fil26" points="87.01,34.52 139.65,85.91 138.05,87.5 "/>
    <polygon id="224" class="fil25" points="87.01,34.52 138.37,87.18 136.74,88.74 "/>
    <polygon id="225" class="fil24" points="87.01,34.52 137.06,88.43 135.39,89.94 "/>
    <polygon id="226" class="fil23" points="87.01,34.52 135.73,89.64 134.02,91.11 "/>
    <polygon id="227" class="fil22" points="87.01,34.52 134.36,90.82 132.62,92.25 "/>
    <polygon id="228" class="fil21" points="87.01,34.52 132.96,91.96 131.19,93.35 "/>
    <polygon id="229" class="fil20" points="87.01,34.52 131.54,93.07 129.73,94.42 "/>
    <polygon id="230" class="fil19" points="87.01,34.52 130.09,94.15 128.25,95.44 "/>
    <polygon id="231" class="fil18" points="87.01,34.52 128.62,95.19 126.74,96.44 "/>
    <polygon id="232" class="fil17" points="87.01,34.52 127.12,96.19 125.21,97.39 "/>
    <polygon id="233" class="fil16" points="87.01,34.52 125.59,97.15 123.65,98.31 "/>
    <polygon id="234" class="fil15" points="87.01,34.52 124.04,98.08 122.08,99.19 "/>
    <polygon id="235" class="fil14" points="87.01,34.52 122.47,98.97 120.48,100.03 "/>
    <polygon id="236" class="fil13" points="87.01,34.52 120.88,99.82 118.86,100.83 "/>
    <polygon id="237" class="fil12" points="87.01,34.52 119.27,100.63 117.23,101.59 "/>
    <polygon id="238" class="fil11" points="87.01,34.52 117.64,101.4 115.57,102.31 "/>
    <polygon id="239" class="fil10" points="87.01,34.52 115.99,102.13 113.9,102.99 "/>
    <polygon id="240" class="fil9" points="87.01,34.52 114.32,102.82 112.21,103.63 "/>
    <polygon id="241" class="fil8" points="87.01,34.52 112.63,103.47 110.51,104.23 "/>
    <polygon id="242" class="fil7" points="87.01,34.52 110.93,104.08 108.79,104.78 "/>
    <polygon id="243" class="fil6" points="87.01,34.52 109.22,104.64 107.06,105.29 "/>
    <polygon id="244" class="fil5" points="87.01,34.52 107.49,105.16 105.32,105.76 "/>
    <polygon id="245" class="fil5" points="87.01,34.52 105.75,105.64 103.56,106.19 "/>
    <polygon id="246" class="fil4" points="87.01,34.52 104,106.08 101.8,106.57 "/>
    <polygon id="247" class="fil4" points="87.01,34.52 102.24,106.48 100.03,106.91 "/>
    <polygon id="248" class="fil3" points="87.01,34.52 100.47,106.83 98.25,107.21 "/>
    <polygon id="249" class="fil3" points="87.01,34.52 98.69,107.13 96.46,107.46 "/>
    <polygon id="250" class="fil2" points="87.01,34.52 96.91,107.4 94.67,107.67 "/>
    <polygon id="251" class="fil1" points="87.01,34.52 95.12,107.62 92.87,107.84 "/>
    <polygon id="252" class="fil1" points="87.01,34.52 93.32,107.79 91.07,107.96 "/>
    <polygon id="253" class="fil1" points="87.01,34.52 91.52,107.93 89.27,108.03 "/>
    <polygon id="254" class="fil1" points="87.01,34.52 89.72,108.01 87.46,108.07 "/>
    <polygon id="255" class="fil1" points="87.01,34.52 87.91,108.06 86.11,108.05 "/>
   </g>
  </g>
  <path class="fil97" d="M9.95 53.18c1.1,0 2.12,0.35 3.05,1.07 0.93,0.71 1.39,1.64 1.39,2.79 0,0.62 -0.21,1.16 -0.63,1.63 -0.42,0.47 -1,0.84 -1.74,1.1l-0.18 0.11 0.18 0.09c1.43,0.23 2.64,0.84 3.65,1.84 1,1 1.5,2.17 1.5,3.5 0,1.43 -0.61,2.6 -1.83,3.53 -1.22,0.93 -2.98,1.39 -5.28,1.39 -3.67,0 -5.78,-0.01 -6.34,-0.05 -0.57,-0.02 -0.85,-0.18 -0.85,-0.47 0,-0.14 0.04,-0.26 0.12,-0.36 0.08,-0.1 0.33,-0.17 0.73,-0.22 0.39,-0.04 0.65,-0.16 0.77,-0.35 0.12,-0.19 0.18,-0.41 0.18,-0.67l0 -12.89c0,-0.31 -0.06,-0.56 -0.17,-0.74 -0.11,-0.18 -0.36,-0.27 -0.75,-0.27 -0.4,0 -0.65,-0.05 -0.75,-0.15 -0.1,-0.1 -0.16,-0.24 -0.16,-0.41 0,-0.14 0.08,-0.25 0.23,-0.34 0.15,-0.09 0.34,-0.13 0.56,-0.13l6.32 0zm-3.34 5.15c0,0.59 0.16,0.95 0.5,1.09 0.33,0.13 0.86,0.2 1.59,0.2 1.02,0 1.87,-0.26 2.54,-0.77 0.68,-0.51 1.02,-1.19 1.02,-2.05 0,-0.82 -0.33,-1.45 -1,-1.91 -0.67,-0.46 -1.52,-0.68 -2.56,-0.68 -0.81,0 -1.36,0.08 -1.65,0.24 -0.3,0.16 -0.44,0.48 -0.44,0.94l0 2.94zm0.09 9.58c0,0.46 0.05,0.78 0.14,0.95 0.1,0.17 0.29,0.29 0.6,0.34 0.3,0.05 0.86,0.07 1.66,0.07 1.73,0 3.11,-0.38 4.14,-1.15 1.02,-0.78 1.54,-1.85 1.54,-3.22 0,-1.27 -0.56,-2.3 -1.65,-3.08 -1.11,-0.78 -2.47,-1.17 -4.1,-1.17 -0.73,0 -1.29,0.1 -1.71,0.29 -0.41,0.19 -0.62,0.46 -0.62,0.8l0 6.17z"/>
  <path id="1" class="fil97" d="M19.61 55.63c0,-0.45 -0.08,-0.76 -0.26,-0.93 -0.17,-0.17 -0.4,-0.29 -0.68,-0.37 -0.28,-0.08 -0.47,-0.16 -0.57,-0.24 -0.11,-0.08 -0.16,-0.22 -0.16,-0.43 0,-0.12 0.05,-0.22 0.15,-0.29 0.11,-0.08 0.23,-0.12 0.37,-0.12 0.24,0 0.61,0.04 1.09,0.12 0.5,0.08 0.87,0.12 1.12,0.12 0.23,0 0.58,-0.04 1.03,-0.11 0.46,-0.07 0.8,-0.11 1.02,-0.11 0.39,0 0.58,0.17 0.58,0.49 0,0.2 -0.05,0.34 -0.15,0.41 -0.1,0.07 -0.31,0.14 -0.61,0.2 -0.31,0.05 -0.54,0.21 -0.68,0.48 -0.14,0.27 -0.21,0.66 -0.21,1.18l0 12.09c0,0.22 0.05,0.43 0.16,0.6 0.1,0.18 0.34,0.31 0.7,0.41 0.36,0.1 0.57,0.2 0.65,0.3 0.08,0.11 0.12,0.24 0.12,0.38 0,0.28 -0.24,0.42 -0.72,0.42 -0.22,0 -0.54,-0.03 -0.96,-0.11 -0.42,-0.07 -0.73,-0.1 -0.95,-0.1 -0.2,0 -0.51,0.03 -0.93,0.08 -0.41,0.06 -0.72,0.08 -0.93,0.08 -0.58,0 -0.88,-0.18 -0.88,-0.56 0,-0.1 0.04,-0.19 0.1,-0.27 0.06,-0.08 0.28,-0.16 0.66,-0.22 0.38,-0.07 0.63,-0.23 0.76,-0.5 0.12,-0.27 0.18,-0.57 0.18,-0.91l0 -12.09z"/>
  <path id="2" class="fil97" d="M31.15 53.18c1.1,0 2.12,0.35 3.05,1.07 0.93,0.71 1.39,1.64 1.39,2.79 0,0.62 -0.21,1.16 -0.63,1.63 -0.42,0.47 -1,0.84 -1.75,1.1l-0.17 0.11 0.17 0.09c1.43,0.23 2.65,0.84 3.65,1.84 1.01,1 1.51,2.17 1.51,3.5 0,1.43 -0.61,2.6 -1.83,3.53 -1.23,0.93 -2.99,1.39 -5.29,1.39 -3.66,0 -5.77,-0.01 -6.33,-0.05 -0.57,-0.02 -0.85,-0.18 -0.85,-0.47 0,-0.14 0.04,-0.26 0.12,-0.36 0.08,-0.1 0.32,-0.17 0.72,-0.22 0.4,-0.04 0.66,-0.16 0.78,-0.35 0.11,-0.19 0.17,-0.41 0.17,-0.67l0 -12.89c0,-0.31 -0.05,-0.56 -0.16,-0.74 -0.11,-0.18 -0.36,-0.27 -0.75,-0.27 -0.4,0 -0.65,-0.05 -0.76,-0.15 -0.1,-0.1 -0.15,-0.24 -0.15,-0.41 0,-0.14 0.08,-0.25 0.23,-0.34 0.15,-0.09 0.34,-0.13 0.56,-0.13l6.32 0zm-3.35 5.15c0,0.59 0.17,0.95 0.5,1.09 0.34,0.13 0.87,0.2 1.6,0.2 1.01,0 1.86,-0.26 2.54,-0.77 0.68,-0.51 1.02,-1.19 1.02,-2.05 0,-0.82 -0.33,-1.45 -1,-1.91 -0.67,-0.46 -1.52,-0.68 -2.56,-0.68 -0.81,0 -1.36,0.08 -1.66,0.24 -0.29,0.16 -0.44,0.48 -0.44,0.94l0 2.94zm0.1 9.58c0,0.46 0.05,0.78 0.14,0.95 0.1,0.17 0.29,0.29 0.6,0.34 0.3,0.05 0.86,0.07 1.66,0.07 1.73,0 3.11,-0.38 4.14,-1.15 1.02,-0.78 1.53,-1.85 1.53,-3.22 0,-1.27 -0.55,-2.3 -1.65,-3.08 -1.1,-0.78 -2.46,-1.17 -4.09,-1.17 -0.73,0 -1.3,0.1 -1.71,0.29 -0.41,0.19 -0.62,0.46 -0.62,0.8l0 6.17z"/>
  <path id="3" class="fil97" d="M48.3 69.08c0.29,0 0.55,-0.07 0.76,-0.2 0.21,-0.14 0.37,-0.44 0.46,-0.9 0.09,-0.46 0.19,-0.74 0.31,-0.84 0.11,-0.09 0.26,-0.14 0.42,-0.14 0.12,0 0.24,0.06 0.36,0.19 0.13,0.12 0.19,0.29 0.19,0.5 0,0.68 0.05,1.36 0.15,2.04 0,0.42 -0.21,0.61 -0.61,0.57 -0.27,-0.03 -0.68,-0.04 -1.23,-0.04l-9.11 0c-0.72,0 -1.08,-0.19 -1.08,-0.57 0,-0.24 0.06,-0.4 0.19,-0.47 0.13,-0.07 0.33,-0.11 0.59,-0.11 0.51,-0.04 0.82,-0.17 0.95,-0.41 0.12,-0.24 0.19,-0.51 0.19,-0.81l0 -12.28c0,-0.29 -0.08,-0.55 -0.22,-0.78 -0.13,-0.23 -0.44,-0.42 -0.91,-0.57 -0.48,-0.15 -0.76,-0.29 -0.86,-0.41 -0.1,-0.13 -0.15,-0.28 -0.15,-0.44 0,-0.09 0.06,-0.18 0.18,-0.27 0.12,-0.09 0.26,-0.13 0.42,-0.13 0.11,0 0.37,0.07 0.79,0.23 0.41,0.15 0.87,0.22 1.37,0.22 0.63,0 1.23,-0.08 1.79,-0.25 0.56,-0.17 0.92,-0.25 1.08,-0.25 0.18,0 0.34,0.06 0.47,0.19 0.14,0.13 0.2,0.26 0.2,0.42 0,0.13 -0.04,0.24 -0.12,0.33 -0.08,0.09 -0.29,0.17 -0.63,0.23 -0.44,0.09 -0.74,0.21 -0.92,0.36 -0.31,0.25 -0.46,0.69 -0.46,1.31l0 11.73c0,0.58 0.09,0.99 0.28,1.21 0.18,0.23 0.45,0.34 0.8,0.34l4.35 0z"/>
  <path id="4" class="fil97" d="M53.29 55.63c0,-0.45 -0.08,-0.76 -0.26,-0.93 -0.18,-0.17 -0.4,-0.29 -0.68,-0.37 -0.28,-0.08 -0.47,-0.16 -0.57,-0.24 -0.11,-0.08 -0.16,-0.22 -0.16,-0.43 0,-0.12 0.05,-0.22 0.15,-0.29 0.11,-0.08 0.23,-0.12 0.37,-0.12 0.24,0 0.61,0.04 1.09,0.12 0.5,0.08 0.87,0.12 1.12,0.12 0.23,0 0.58,-0.04 1.03,-0.11 0.46,-0.07 0.8,-0.11 1.02,-0.11 0.39,0 0.58,0.17 0.58,0.49 0,0.2 -0.05,0.34 -0.15,0.41 -0.1,0.07 -0.31,0.14 -0.61,0.2 -0.31,0.05 -0.54,0.21 -0.68,0.48 -0.14,0.27 -0.21,0.66 -0.21,1.18l0 12.09c0,0.22 0.05,0.43 0.16,0.6 0.1,0.18 0.34,0.31 0.69,0.41 0.37,0.1 0.58,0.2 0.66,0.3 0.08,0.11 0.12,0.24 0.12,0.38 0,0.28 -0.24,0.42 -0.72,0.42 -0.22,0 -0.54,-0.03 -0.96,-0.11 -0.42,-0.07 -0.73,-0.1 -0.95,-0.1 -0.2,0 -0.51,0.03 -0.93,0.08 -0.41,0.06 -0.72,0.08 -0.93,0.08 -0.59,0 -0.88,-0.18 -0.88,-0.56 0,-0.1 0.03,-0.19 0.09,-0.27 0.07,-0.08 0.29,-0.16 0.67,-0.22 0.38,-0.07 0.63,-0.23 0.76,-0.5 0.12,-0.27 0.18,-0.57 0.18,-0.91l0 -12.09z"/>
  <path id="5" class="fil97" d="M72.88 66.5c0.12,0 0.22,0.04 0.31,0.13 0.08,0.09 0.13,0.17 0.13,0.24 0,0.27 -0.32,0.71 -0.94,1.31 -0.63,0.6 -1.45,1.11 -2.47,1.53 -1.01,0.43 -2.08,0.64 -3.21,0.64 -1.83,0 -3.41,-0.4 -4.76,-1.19 -1.34,-0.8 -2.38,-1.9 -3.09,-3.32 -0.72,-1.42 -1.08,-2.9 -1.08,-4.42 0,-1.53 0.35,-2.97 1.05,-4.3 0.71,-1.34 1.7,-2.38 3,-3.13 1.29,-0.75 2.79,-1.13 4.5,-1.13 1.09,0 2.1,0.15 3.03,0.43 0.92,0.28 1.65,0.63 2.18,1.04 0.54,0.4 0.81,0.71 0.81,0.92 0,0.33 -0.01,0.62 -0.03,0.89 -0.01,0.27 -0.02,0.43 -0.02,0.48 0,0.09 0.03,0.24 0.08,0.43 0.06,0.19 0.09,0.37 0.09,0.53 0,0.26 -0.16,0.39 -0.48,0.39 -0.1,0 -0.2,-0.05 -0.3,-0.14 -0.11,-0.1 -0.25,-0.36 -0.45,-0.79 -0.41,-0.92 -0.86,-1.59 -1.33,-2 -0.84,-0.73 -2.01,-1.1 -3.51,-1.1 -1.94,0 -3.44,0.7 -4.52,2.11 -1.07,1.4 -1.61,3.21 -1.61,5.43 0,2.42 0.58,4.33 1.75,5.74 1.16,1.4 2.73,2.1 4.7,2.1 0.51,0 1.31,-0.17 2.4,-0.51 1.09,-0.35 2.16,-1.01 3.23,-2 0.23,-0.21 0.42,-0.31 0.54,-0.31z"/>
  <path id="6" class="fil97" d="M82.03 57.38c-0.15,-0.36 -0.27,-0.54 -0.35,-0.54 -0.09,0 -0.23,0.25 -0.42,0.75l-2.5 5.7 -2.16 4.79c-0.06,0.15 -0.09,0.28 -0.09,0.39 0,0.11 0.04,0.22 0.13,0.31 0.09,0.1 0.3,0.19 0.64,0.28 0.33,0.09 0.54,0.19 0.63,0.29 0.08,0.09 0.13,0.2 0.13,0.32 0,0.36 -0.23,0.54 -0.7,0.54 -0.11,0 -0.38,-0.03 -0.8,-0.1 -0.42,-0.06 -0.77,-0.09 -1.05,-0.09 -0.29,0 -0.59,0.03 -0.89,0.08 -0.3,0.06 -0.53,0.08 -0.67,0.08 -0.19,0 -0.35,-0.05 -0.47,-0.15 -0.13,-0.1 -0.19,-0.21 -0.19,-0.35 0,-0.21 0.04,-0.34 0.12,-0.41 0.07,-0.06 0.22,-0.11 0.42,-0.14 0.61,-0.1 1.02,-0.33 1.25,-0.68 0.23,-0.36 0.82,-1.61 1.77,-3.77l2.83 -6.31c0.69,-1.51 1.14,-2.51 1.34,-3 0.2,-0.5 0.3,-0.88 0.3,-1.15 0,-0.09 -0.04,-0.27 -0.11,-0.51 -0.07,-0.25 -0.1,-0.42 -0.1,-0.53 0,-0.23 0.12,-0.34 0.36,-0.34 0.4,0 0.72,0.17 0.96,0.5 0.24,0.34 0.57,0.97 0.97,1.9l3.24 7.33c1.18,2.67 1.92,4.32 2.23,4.95 0.32,0.63 0.57,1.04 0.77,1.22 0.2,0.19 0.44,0.32 0.72,0.41 0.28,0.08 0.47,0.16 0.58,0.24 0.1,0.08 0.15,0.2 0.15,0.39 0,0.3 -0.25,0.45 -0.74,0.45 -0.17,0 -0.47,-0.03 -0.9,-0.08 -0.43,-0.06 -0.87,-0.08 -1.3,-0.08 -0.43,0 -0.88,0.03 -1.34,0.09 -0.47,0.06 -0.79,0.1 -0.96,0.1 -0.27,0 -0.48,-0.05 -0.63,-0.14 -0.16,-0.1 -0.24,-0.22 -0.24,-0.38 0,-0.13 0.05,-0.25 0.14,-0.33 0.1,-0.09 0.35,-0.16 0.77,-0.2 0.41,-0.03 0.68,-0.12 0.8,-0.25 0.12,-0.14 0.18,-0.31 0.18,-0.51 0,-0.22 -0.22,-0.82 -0.66,-1.8 -0.45,-0.99 -0.73,-1.51 -0.83,-1.57 -0.11,-0.06 -0.32,-0.09 -0.63,-0.09l-5.23 0c-0.2,0 -0.38,-0.07 -0.55,-0.2 -0.16,-0.14 -0.24,-0.29 -0.24,-0.46 0,-0.14 0.06,-0.26 0.19,-0.36 0.13,-0.11 0.28,-0.16 0.44,-0.16l5.02 0c0.28,0 0.42,-0.05 0.42,-0.15 0,-0.06 -0.05,-0.22 -0.16,-0.45l-2.59 -5.83z"/>
  <path id="7" class="fil97" d="M107.05 67.7c0,0.32 0.07,0.6 0.22,0.84 0.15,0.25 0.45,0.42 0.89,0.5 0.45,0.09 0.72,0.19 0.8,0.28 0.09,0.09 0.13,0.21 0.13,0.34 0,0.14 -0.06,0.26 -0.18,0.35 -0.12,0.1 -0.29,0.15 -0.52,0.15 -0.17,0 -0.5,-0.04 -0.99,-0.11 -0.49,-0.07 -0.89,-0.1 -1.22,-0.1 -0.22,0 -0.6,0.03 -1.16,0.1 -0.56,0.07 -0.96,0.11 -1.2,0.11 -0.5,0 -0.74,-0.18 -0.74,-0.55 0,-0.18 0.05,-0.3 0.16,-0.36 0.11,-0.06 0.28,-0.1 0.51,-0.12 0.57,-0.06 0.93,-0.17 1.08,-0.32 0.14,-0.15 0.21,-0.51 0.21,-1.07l0 -10.02c0,-0.42 -0.02,-0.64 -0.06,-0.64 -0.06,0 -0.2,0.21 -0.41,0.62l-1.81 3.53c-0.75,1.48 -1.44,2.79 -2.06,3.94 -0.61,1.15 -0.95,1.76 -0.99,1.85 -0.04,0.08 -0.09,0.15 -0.14,0.21 -0.06,0.05 -0.15,0.08 -0.26,0.08 -0.2,0 -0.37,-0.15 -0.53,-0.46l-4.38 -8.64c-0.2,-0.4 -0.32,-0.6 -0.37,-0.6 -0.04,0 -0.06,0.2 -0.06,0.6l0 9.89c0,0.29 0.13,0.53 0.38,0.72 0.25,0.19 0.49,0.29 0.72,0.29 0.66,0 0.99,0.18 0.99,0.56 0,0.34 -0.29,0.51 -0.86,0.51 -0.09,0 -0.36,-0.03 -0.79,-0.11 -0.43,-0.08 -0.74,-0.12 -0.92,-0.12 -0.23,0 -0.56,0.04 -0.96,0.13 -0.41,0.08 -0.71,0.13 -0.88,0.13 -0.24,0 -0.45,-0.07 -0.6,-0.2 -0.16,-0.13 -0.24,-0.27 -0.24,-0.41 0,-0.15 0.09,-0.27 0.28,-0.38 0.18,-0.11 0.39,-0.16 0.63,-0.16 0.77,0 1.15,-0.45 1.15,-1.34l0 -12.2c0,-0.32 -0.1,-0.59 -0.3,-0.82 -0.21,-0.23 -0.49,-0.37 -0.87,-0.42 -0.37,-0.05 -0.62,-0.13 -0.74,-0.24 -0.11,-0.11 -0.17,-0.25 -0.17,-0.41 0,-0.12 0.07,-0.22 0.22,-0.31 0.16,-0.1 0.31,-0.14 0.47,-0.14 0.16,0 0.36,0.03 0.61,0.09 0.24,0.07 0.43,0.1 0.58,0.1 0.15,0 0.34,-0.03 0.57,-0.1 0.22,-0.06 0.41,-0.09 0.55,-0.09 0.18,0 0.33,0.07 0.45,0.22 0.11,0.15 0.27,0.44 0.47,0.89l2.66 5.34 2.23 4.45c0.09,0.19 0.17,0.28 0.21,0.28 0.06,0 0.12,-0.08 0.21,-0.25 2.41,-4.52 4.09,-7.73 5.05,-9.62 0.29,-0.57 0.54,-0.92 0.75,-1.07 0.2,-0.14 0.42,-0.22 0.65,-0.22 0.11,0 0.3,0.02 0.55,0.05 0.26,0.03 0.46,0.05 0.59,0.05 0.12,0 0.28,-0.02 0.47,-0.06 0.19,-0.04 0.31,-0.06 0.35,-0.06 0.42,0 0.64,0.17 0.64,0.51 0,0.28 -0.2,0.42 -0.61,0.42 -0.33,0 -0.62,0.12 -0.87,0.36 -0.25,0.23 -0.4,0.4 -0.46,0.51 -0.05,0.1 -0.08,0.36 -0.08,0.75l0 11.97z"/>
  <path id="8" class="fil97" d="M118.77 69.18c0.4,0 0.7,-0.11 0.91,-0.32 0.21,-0.2 0.31,-0.47 0.31,-0.8 0,-0.29 0.07,-0.53 0.2,-0.7 0.14,-0.18 0.29,-0.27 0.47,-0.27 0.18,0 0.33,0.09 0.45,0.25 0.12,0.17 0.18,0.38 0.18,0.66 0,0.27 0.01,0.56 0.03,0.88 0.03,0.32 0.04,0.53 0.04,0.65 0,0.32 -0.05,0.53 -0.14,0.63 -0.09,0.1 -0.32,0.14 -0.69,0.14l-9.46 0c-0.67,0 -1.12,-0.05 -1.37,-0.15 -0.24,-0.1 -0.37,-0.25 -0.37,-0.45 0,-0.31 0.23,-0.47 0.67,-0.47 0.57,0 0.94,-0.1 1.11,-0.28 0.18,-0.18 0.26,-0.47 0.26,-0.87l0 -10.67c0,-1.15 -0.02,-1.91 -0.06,-2.28 -0.04,-0.37 -0.14,-0.61 -0.29,-0.72 -0.15,-0.1 -0.47,-0.16 -0.93,-0.16 -0.28,0 -0.5,-0.05 -0.65,-0.16 -0.15,-0.11 -0.23,-0.24 -0.23,-0.41 0,-0.15 0.07,-0.29 0.2,-0.4 0.13,-0.12 0.3,-0.18 0.51,-0.18l8.99 0c0.35,0 0.59,0.08 0.7,0.23 0.1,0.14 0.18,0.36 0.24,0.65 0.05,0.29 0.07,0.76 0.07,1.42 0,0.31 -0.13,0.46 -0.39,0.46 -0.15,0 -0.28,-0.05 -0.39,-0.14 -0.12,-0.09 -0.24,-0.32 -0.38,-0.68 -0.14,-0.37 -0.28,-0.6 -0.42,-0.71 -0.15,-0.1 -0.31,-0.15 -0.5,-0.15l-3.2 0c-0.54,0 -0.88,0.08 -1.02,0.23 -0.14,0.15 -0.21,0.38 -0.21,0.68l0 2.47c0,0.57 0.08,0.95 0.23,1.14 0.16,0.18 0.48,0.27 0.95,0.27l3.13 0c0.26,0 0.46,-0.1 0.59,-0.31 0.13,-0.21 0.2,-0.44 0.2,-0.7 0,-0.13 0.05,-0.24 0.16,-0.34 0.11,-0.09 0.24,-0.13 0.38,-0.13 0.16,0 0.29,0.05 0.38,0.15 0.1,0.1 0.16,0.24 0.16,0.43 0,0.16 -0.03,0.4 -0.08,0.71 -0.05,0.3 -0.08,0.56 -0.08,0.75 0,0.3 0.04,0.61 0.1,0.94 0.07,0.32 0.1,0.52 0.1,0.59 0,0.18 -0.06,0.33 -0.17,0.44 -0.12,0.12 -0.25,0.18 -0.4,0.18 -0.17,0 -0.3,-0.07 -0.41,-0.22 -0.11,-0.14 -0.17,-0.34 -0.17,-0.59 0,-0.3 -0.08,-0.51 -0.23,-0.63 -0.16,-0.12 -0.42,-0.19 -0.78,-0.19l-3.1 0c-0.28,0 -0.51,0.06 -0.69,0.17 -0.18,0.11 -0.27,0.28 -0.27,0.5l0 7.48c0,0.38 0.1,0.65 0.3,0.78 0.19,0.13 0.54,0.2 1.02,0.2l4.04 0z"/>
  <path id="9" class="fil97" d="M134.16 55.35c0,-0.32 -0.12,-0.57 -0.34,-0.76 -0.21,-0.19 -0.5,-0.29 -0.84,-0.29 -0.27,0 -0.48,-0.05 -0.64,-0.14 -0.16,-0.09 -0.24,-0.21 -0.24,-0.36 0,-0.17 0.07,-0.32 0.22,-0.42 0.16,-0.1 0.32,-0.16 0.5,-0.16 0.09,0 0.41,0.05 0.94,0.15 0.54,0.09 0.9,0.14 1.08,0.14 0.23,0 0.54,-0.04 0.93,-0.11 0.38,-0.07 0.66,-0.1 0.83,-0.1 0.46,0 0.69,0.18 0.69,0.55 0,0.3 -0.23,0.45 -0.7,0.45 -0.4,0 -0.7,0.07 -0.89,0.19 -0.19,0.12 -0.31,0.27 -0.35,0.45 -0.05,0.18 -0.07,0.4 -0.07,0.67l0 11.68c0,0.78 0.09,1.38 0.26,1.8 0.17,0.42 0.25,0.76 0.25,1.02 0,0.24 -0.1,0.36 -0.31,0.36 -0.15,0 -0.26,-0.03 -0.34,-0.1 -0.07,-0.06 -0.19,-0.21 -0.34,-0.42l-9.77 -12.84c-0.1,-0.13 -0.19,-0.2 -0.28,-0.2 -0.12,0 -0.18,0.15 -0.18,0.44l0 10.74c0,0.32 0.14,0.58 0.42,0.77 0.27,0.2 0.53,0.29 0.79,0.29 0.61,0 0.93,0.21 0.93,0.63 0,0.13 -0.04,0.23 -0.11,0.31 -0.07,0.08 -0.23,0.12 -0.49,0.12 -0.25,0 -0.62,-0.03 -1.11,-0.1 -0.5,-0.06 -0.82,-0.09 -0.97,-0.09 -0.2,0 -0.54,0.03 -1.02,0.09 -0.48,0.07 -0.78,0.1 -0.91,0.1 -0.39,0 -0.59,-0.19 -0.59,-0.56 0,-0.32 0.23,-0.47 0.7,-0.47 0.38,0 0.69,-0.11 0.92,-0.32 0.23,-0.21 0.34,-0.52 0.34,-0.91l0 -12.38c0,-0.38 -0.09,-0.69 -0.29,-0.91 -0.2,-0.22 -0.44,-0.33 -0.74,-0.33 -0.4,0 -0.67,-0.05 -0.8,-0.14 -0.14,-0.08 -0.2,-0.22 -0.2,-0.4 0,-0.33 0.19,-0.49 0.59,-0.49 0.07,0 0.24,0.02 0.52,0.06 0.28,0.04 0.51,0.05 0.7,0.05 0.14,0 0.31,-0.01 0.5,-0.05 0.18,-0.04 0.35,-0.06 0.48,-0.06 0.22,0 0.5,0.18 0.83,0.54 0.33,0.37 1.47,1.84 3.41,4.41l5.18 6.87c0.09,0.12 0.17,0.18 0.25,0.18 0.17,0 0.26,-0.21 0.26,-0.63l0 -9.32z"/>
  <path id="10" class="fil97" d="M147.38 53.1c0.26,0 0.48,0.28 0.64,0.83 0.17,0.56 0.25,1.07 0.25,1.55 0,0.47 -0.16,0.71 -0.47,0.71 -0.11,0 -0.21,-0.03 -0.3,-0.1 -0.1,-0.07 -0.22,-0.32 -0.38,-0.73 -0.16,-0.42 -0.4,-0.71 -0.71,-0.86 -0.32,-0.15 -0.65,-0.22 -1.03,-0.22 -0.53,0 -0.91,0.12 -1.14,0.36 -0.24,0.25 -0.36,0.65 -0.36,1.2l0 12.41c0,0.18 0.06,0.35 0.17,0.49 0.12,0.15 0.35,0.27 0.71,0.38 0.36,0.1 0.58,0.19 0.66,0.27 0.08,0.08 0.12,0.17 0.12,0.28 0,0.41 -0.22,0.61 -0.65,0.61 -0.23,0 -0.57,-0.04 -1.02,-0.11 -0.45,-0.07 -0.79,-0.1 -1.01,-0.1 -0.2,0 -0.49,0.03 -0.88,0.09 -0.39,0.06 -0.68,0.1 -0.89,0.1 -0.24,0 -0.45,-0.06 -0.62,-0.17 -0.17,-0.11 -0.25,-0.27 -0.25,-0.47 0,-0.09 0.03,-0.18 0.09,-0.26 0.06,-0.07 0.27,-0.16 0.62,-0.27 0.35,-0.1 0.59,-0.27 0.71,-0.48 0.12,-0.22 0.18,-0.47 0.18,-0.74l0 -12.55c0,-0.76 -0.5,-1.14 -1.52,-1.14 -0.67,0 -1.13,0.15 -1.41,0.45 -0.17,0.17 -0.3,0.44 -0.38,0.8 -0.07,0.36 -0.15,0.57 -0.24,0.64 -0.08,0.07 -0.18,0.1 -0.3,0.1 -0.12,0 -0.24,-0.03 -0.36,-0.1 -0.12,-0.07 -0.17,-0.15 -0.17,-0.25 0,-0.85 0.07,-1.52 0.22,-2 0.15,-0.48 0.36,-0.72 0.64,-0.72l9.08 0z"/>
  <path id="11" class="fil97" d="M157.9 69.18c0.4,0 0.7,-0.11 0.91,-0.32 0.21,-0.2 0.31,-0.47 0.31,-0.8 0,-0.29 0.07,-0.53 0.2,-0.7 0.13,-0.18 0.29,-0.27 0.47,-0.27 0.18,0 0.33,0.09 0.45,0.25 0.12,0.17 0.18,0.38 0.18,0.66 0,0.27 0.01,0.56 0.03,0.88 0.03,0.32 0.04,0.53 0.04,0.65 0,0.32 -0.05,0.53 -0.14,0.63 -0.09,0.1 -0.32,0.14 -0.69,0.14l-9.46 0c-0.67,0 -1.12,-0.05 -1.37,-0.15 -0.24,-0.1 -0.37,-0.25 -0.37,-0.45 0,-0.31 0.23,-0.47 0.67,-0.47 0.57,0 0.94,-0.1 1.11,-0.28 0.17,-0.18 0.26,-0.47 0.26,-0.87l0 -10.67c0,-1.15 -0.02,-1.91 -0.06,-2.28 -0.04,-0.37 -0.14,-0.61 -0.29,-0.72 -0.15,-0.1 -0.47,-0.16 -0.93,-0.16 -0.28,0 -0.5,-0.05 -0.65,-0.16 -0.15,-0.11 -0.23,-0.24 -0.23,-0.41 0,-0.15 0.07,-0.29 0.2,-0.4 0.13,-0.12 0.3,-0.18 0.5,-0.18l9 0c0.35,0 0.59,0.08 0.7,0.23 0.1,0.14 0.18,0.36 0.24,0.65 0.05,0.29 0.07,0.76 0.07,1.42 0,0.31 -0.13,0.46 -0.39,0.46 -0.15,0 -0.28,-0.05 -0.4,-0.14 -0.11,-0.09 -0.23,-0.32 -0.37,-0.68 -0.14,-0.37 -0.28,-0.6 -0.42,-0.71 -0.15,-0.1 -0.31,-0.15 -0.5,-0.15l-3.21 0c-0.53,0 -0.87,0.08 -1.01,0.23 -0.14,0.15 -0.22,0.38 -0.22,0.68l0 2.47c0,0.57 0.08,0.95 0.24,1.14 0.16,0.18 0.48,0.27 0.95,0.27l3.13 0c0.26,0 0.46,-0.1 0.59,-0.31 0.13,-0.21 0.2,-0.44 0.2,-0.7 0,-0.13 0.05,-0.24 0.16,-0.34 0.11,-0.09 0.24,-0.13 0.38,-0.13 0.16,0 0.28,0.05 0.38,0.15 0.1,0.1 0.16,0.24 0.16,0.43 0,0.16 -0.03,0.4 -0.08,0.71 -0.05,0.3 -0.08,0.56 -0.08,0.75 0,0.3 0.04,0.61 0.1,0.94 0.07,0.32 0.1,0.52 0.1,0.59 0,0.18 -0.06,0.33 -0.17,0.44 -0.12,0.12 -0.25,0.18 -0.41,0.18 -0.16,0 -0.29,-0.07 -0.4,-0.22 -0.11,-0.14 -0.17,-0.34 -0.17,-0.59 0,-0.3 -0.08,-0.51 -0.23,-0.63 -0.16,-0.12 -0.42,-0.19 -0.78,-0.19l-3.1 0c-0.28,0 -0.51,0.06 -0.69,0.17 -0.18,0.11 -0.28,0.28 -0.28,0.5l0 7.48c0,0.38 0.1,0.65 0.3,0.78 0.2,0.13 0.55,0.2 1.03,0.2l4.04 0z"/>
  <path id="12" class="fil97" d="M163.25 56.25c0,0.39 0.13,0.79 0.4,1.19 0.27,0.39 0.96,0.99 2.07,1.77 2.12,1.5 3.54,2.72 4.24,3.64 0.7,0.92 1.05,1.9 1.05,2.94 0,1.48 -0.57,2.63 -1.72,3.45 -1.14,0.82 -2.4,1.23 -3.76,1.23 -0.96,0 -1.96,-0.2 -2.97,-0.6 -1.02,-0.4 -1.53,-0.83 -1.53,-1.27 0,-0.11 0.01,-0.32 0.04,-0.62 0.02,-0.29 0.03,-0.67 0.03,-1.13 0,-0.15 -0.01,-0.34 -0.04,-0.56 -0.03,-0.22 -0.04,-0.37 -0.04,-0.44 0,-0.29 0.17,-0.43 0.51,-0.43 0.38,0 0.59,0.28 0.64,0.86 0.09,0.95 0.43,1.69 1,2.22 0.58,0.53 1.38,0.8 2.39,0.8 1.03,0 1.88,-0.29 2.55,-0.87 0.67,-0.58 1.01,-1.34 1.01,-2.27 0,-0.56 -0.23,-1.15 -0.68,-1.78 -0.46,-0.63 -1.64,-1.63 -3.56,-3 -0.8,-0.56 -1.43,-1.04 -1.89,-1.43 -0.46,-0.39 -0.84,-0.86 -1.15,-1.4 -0.31,-0.54 -0.46,-1.15 -0.46,-1.84 0,-1.11 0.51,-2.04 1.52,-2.77 1.01,-0.73 2.17,-1.1 3.49,-1.1 0.75,0 1.55,0.18 2.4,0.56 0.86,0.37 1.29,0.8 1.29,1.3 0,0.07 -0.01,0.18 -0.02,0.34 0,0.15 -0.01,0.37 -0.01,0.67 0,0.08 0.02,0.23 0.05,0.45 0,0.52 -0.18,0.78 -0.54,0.78 -0.13,0 -0.25,-0.06 -0.38,-0.18 -0.12,-0.12 -0.18,-0.25 -0.18,-0.39 0,-0.76 -0.26,-1.34 -0.78,-1.75 -0.51,-0.4 -1.14,-0.61 -1.89,-0.61 -0.84,0 -1.57,0.24 -2.18,0.7 -0.6,0.47 -0.9,0.98 -0.9,1.54z"/>
 </g>
</svg>
